<svg xmlns="http://www.w3.org/2000/svg" xmlns:xlink="http://www.w3.org/1999/xlink" version="1.1" x="0px" y="0px" viewBox="0 0 100 100" enable-background="new 0 0 100 100" xml:space="preserve"><path fill="#000000" d="M80.639,34.667l-0.025-0.135C79.91,18.006,66.509,5.121,49.93,5.121c-16.568,0-29.962,12.87-30.68,29.383  l-0.028,0.163c-0.14,0.782-3.013,19.606,29.227,59.417l1.481,1.827l1.48-1.827C83.652,54.273,80.777,35.449,80.639,34.667z   M49.93,89.843C25.556,59.195,23.06,41.949,22.926,36.904l0.117-1.847C23.48,20.406,35.291,8.931,49.93,8.931  c14.643,0,26.453,11.475,26.888,26.123l0.097,1.85h0.019C76.797,41.97,74.288,59.216,49.93,89.843z"></path></svg>